<?xml version="1.0" encoding="UTF-8" standalone="no"?>
<svg
   xmlns:dc="http://purl.org/dc/elements/1.1/"
   xmlns:cc="http://creativecommons.org/ns#"
   xmlns:rdf="http://www.w3.org/1999/02/22-rdf-syntax-ns#"
   xmlns:svg="http://www.w3.org/2000/svg"
   xmlns="http://www.w3.org/2000/svg"
   viewBox="0 0 512 512"
   height="512"
   width="512"
   version="1.1"
   id="svg2">
  <metadata
     id="metadata8">
    <rdf:RDF>
      <cc:Work
         rdf:about="">
        <dc:format>image/svg+xml</dc:format>
        <dc:type
           rdf:resource="http://purl.org/dc/dcmitype/StillImage" />
        <dc:title></dc:title>
      </cc:Work>
    </rdf:RDF>
  </metadata>
  <defs
     id="defs6" />
  <circle
     r="169.65233"
     cy="256"
     cx="256"
     id="path4288"
     style="opacity:1;fill:#00ff00;fill-opacity:1;fill-rule:nonzero;stroke:none;stroke-width:2.27699995;stroke-linecap:round;stroke-linejoin:miter;stroke-miterlimit:4;stroke-dasharray:none;stroke-dashoffset:0;stroke-opacity:1" />
  <circle
     r="149.70868"
     cy="256"
     cx="256"
     id="path3466"
     style="opacity:1;fill:#b3b3b3;fill-opacity:1;fill-rule:nonzero;stroke:none;stroke-width:2.27699995;stroke-linecap:round;stroke-linejoin:miter;stroke-miterlimit:4;stroke-dasharray:none;stroke-dashoffset:0;stroke-opacity:1" />
  <path
     id="path3338-9"
     d="m 256.00002,101.64968 c -85.24532,3e-5 -154.3503,69.105 -154.35032,154.35032 2e-5,85.24532 69.105,154.35031 154.35032,154.35032 85.2453,-4e-5 154.35026,-69.10502 154.35028,-154.35032 -2e-5,-85.2453 -69.10498,-154.35027 -154.35028,-154.35032 z m -18.40122,20.62388 c 4.66521,0.15056 9.6358,2.73067 8.95157,8.14688 1.23721,15.91388 -0.0487,32.00405 0.23209,47.99867 0.20141,5.29326 -4.05582,9.85868 -9.41576,9.31242 -9.94072,-0.0861 -20.82725,-6.21072 -30.1582,-0.0966 -8.54367,5.67174 -14.11968,15.36532 -16.52416,25.1725 -2.13462,9.81471 2.28432,21.9117 12.71586,24.73204 7.14669,2.86892 15.45755,7.77433 23.25816,4.50628 4.67502,-3.3597 1.67194,-10.40223 -2.97313,-12.17375 -5.75138,-3.65528 -15.88987,-2.54619 -18.02852,-10.31362 -0.83256,-8.68431 4.54112,-20.66249 14.76909,-19.4668 8.64545,0.3085 17.68071,4.26901 26.41087,1.38238 l 0.34391,29.24001 c -0.0959,8.86101 1.51083,18.56825 -3.06123,26.45154 -3.96313,6.0439 -13.29591,7.78817 -18.20131,1.95498 -6.02335,-5.8245 -13.18349,-11.75022 -22.14346,-11.10138 -10.59821,-0.53912 -21.10399,-2.60151 -31.62868,-3.36447 -13.28067,0.86792 -25.84143,6.16492 -38.93698,7.48281 -0.69233,-2.7022 0.93966,-6.02526 -0.0119,-8.98886 -0.50601,-1.93317 0.345,-3.80414 2.62923,-2.85962 6.24407,-1.90955 15.00708,-1.63667 18.64006,-8.01305 1.71648,-6.23111 -6.11843,-10.03034 -11.34532,-8.65849 -3.01562,0.43423 -5.83879,1.74435 -8.88043,2.02952 0.84025,-6.36453 3.32006,-16.08624 11.51135,-15.30103 10.45844,0.45999 22.42304,5.97788 31.937,-0.9741 8.10576,-4.69923 12.49,-13.96114 11.92809,-23.19042 0.10798,-11.23116 -3.80773,-22.26579 -10.57281,-31.18143 -3.37994,-4.86344 1.90246,-9.62698 4.84002,-13.20205 3.11059,-2.92173 7.10947,-6.84104 10.62872,-7.64882 4.11183,10.03025 1.25935,23.01272 9.39712,31.28647 6.30625,5.57884 15.68212,6.45149 23.66816,4.99587 4.63874,-0.80808 9.9654,-6.18696 6.17495,-10.72359 -5.45076,-6.603 -15.12106,-0.30148 -21.15581,-5.765 -5.52212,-7.67977 -1.73174,-18.57555 -6.52056,-26.58027 8.31568,-7.05049 19.65386,-4.34532 29.62796,-5.01451 0.31774,-0.0363 0.64035,-0.0606 0.96732,-0.0729 0.30654,-0.0115 0.61566,-0.0117 0.92667,-0.002 z m 36.80242,0 c 0.31104,-0.0101 0.62017,-0.01 0.9267,0.002 0.327,0.0122 0.64949,0.0365 0.9673,0.0729 9.97412,0.6692 21.31226,-2.03598 29.62795,5.01451 -4.78886,8.00472 -0.99843,18.90051 -6.52057,26.58028 -6.03476,5.4635 -15.70503,-0.838 -21.15579,5.76499 -3.79051,4.53664 1.53621,9.91552 6.17493,10.7236 7.98601,1.45562 17.36198,0.58297 23.66822,-4.99588 8.13779,-8.27375 5.28526,-21.25621 9.39705,-31.28647 3.51928,0.80779 7.51814,4.72709 10.62872,7.64882 2.93754,3.57507 8.21994,8.33861 4.84005,13.20205 -6.7651,8.91564 -10.68069,19.95026 -10.57279,31.18144 -0.56188,9.22926 3.82226,18.49119 11.92806,23.19041 9.51396,6.95198 21.47853,1.4341 31.93698,0.9741 8.19131,-0.78521 10.67114,8.93649 11.51136,15.30103 -3.04161,-0.28518 -5.86484,-1.59529 -8.88044,-2.02952 -5.22689,-1.37185 -13.06171,2.42739 -11.34525,8.6585 3.633,6.37637 12.3959,6.10349 18.64005,8.01305 2.28414,-0.94452 3.13521,0.92644 2.62918,2.85962 -0.95176,2.96359 0.68054,6.28664 -0.0118,8.98885 -13.09553,-1.3179 -25.65642,-6.61489 -38.93705,-7.48281 -10.52472,0.76296 -21.03036,2.82536 -31.62863,3.36447 -8.95998,-0.64884 -16.12007,5.27688 -22.14347,11.10138 -4.90535,5.83319 -14.23821,4.08893 -18.20133,-1.95498 -4.57209,-7.88328 -2.96536,-17.59053 -3.0612,-26.45153 0.3439,-29.24001 0,0 0.3439,-29.24001 8.7302,2.88662 17.76538,-1.07389 26.41084,-1.38238 10.22791,-1.1957 15.60173,10.78249 14.76914,19.4668 -2.1386,7.76742 -12.27725,6.65834 -18.02856,10.31362 -4.64513,1.77151 -7.64807,8.81404 -2.97309,12.17374 7.80065,3.26806 16.1114,-1.63735 23.25812,-4.50628 10.43148,-2.82034 14.8505,-14.91732 12.71589,-24.73203 -2.40444,-9.80718 -7.98054,-19.50077 -16.52418,-25.17251 -9.33096,-6.11414 -20.21746,0.0105 -30.15818,0.0966 -5.35994,0.54625 -9.61716,-4.01915 -9.41577,-9.31242 0.2806,-15.99462 -1.00513,-32.08478 0.23209,-47.99867 -0.6842,-5.4162 4.28631,-7.99631 8.95157,-8.14688 z m -108.11348,36.93795 0.38794,0.77589 0.3151,0.6302 c 4.58027,8.79084 9.42961,18.8315 7.42182,28.95202 -3.45564,7.69771 -13.75682,9.40887 -21.34723,8.06217 -1.94071,-0.77996 -7.42121,-0.17514 -5.04841,-3.34413 5.23378,-12.15688 12.27727,-23.30253 18.27078,-35.07615 z m 179.42459,0 c 5.99348,11.77362 13.037,22.91927 18.27072,35.07615 2.37289,3.16899 -3.10762,2.56417 -5.04837,3.34413 -7.59039,1.3467 -17.8916,-0.36446 -21.34722,-8.06217 -2.0078,-10.12053 2.84153,-20.16118 7.42178,-28.95202 l 0.31511,-0.6302 z M 170.6822,259.99128 c 10.52128,0.45949 21.21795,3.77679 31.79132,1.19434 9.08085,-0.2735 13.24593,9.10016 20.43582,12.90728 6.58198,4.74827 15.78603,4.9736 22.33828,0.0627 3.19492,-2.09536 0.89884,6.25211 1.74491,8.47892 0.20992,21.94113 0.23601,43.90239 0.62512,65.82898 -0.34088,4.92909 -6.85758,3.28343 -10.05442,5.18393 -5.67648,1.43516 -11.09543,4.68328 -15.83467,7.50482 -2.94545,-4.48315 -7.56872,-9.47218 -13.58323,-8.40778 -5.52784,0.60761 -6.57605,7.24282 -4.4419,11.46054 2.91425,7.27275 9.71564,15.30907 18.46728,13.33756 8.51121,-1.75862 15.38335,-7.77923 23.34458,-10.75747 3.38863,2.05151 1.33578,7.34135 1.59752,10.74562 0.87844,5.63133 -1.53161,13.26616 -8.34848,13.19865 -15.33464,3.37765 -29.78182,-4.3936 -42.2303,-12.32958 -8.41674,-5.35223 -19.32488,-13.17066 -18.13863,-24.63209 0.65477,-4.6467 2.37256,-11.34385 8.32985,-10.9489 8.00519,-0.17372 17.45327,-0.56354 22.7042,-7.62171 2.66937,-3.66489 5.62978,-7.80531 10.67447,-7.75725 5.16612,-0.70365 12.19315,-5.36704 9.26159,-11.2928 -3.83047,-6.21545 -12.38212,-4.05515 -17.90823,-1.79744 -6.71879,2.64576 -10.16607,9.80796 -16.37,12.97165 -7.39842,3.1529 -16.28133,0.26007 -23.1074,4.87898 -4.42595,3.11486 -7.01591,8.46276 -8.50094,13.30709 -10.34683,-11.72211 -18.23723,-26.07475 -21.86733,-41.25959 -0.75637,-3.71674 2.109,-6.99425 5.81582,-7.05081 8.20598,-3.80622 16.98228,2.62655 25.15216,-1.25023 5.27812,-1.701 6.91274,-7.25667 8.22481,-11.97553 0.81791,-2.53545 4.52151,-4.35946 5.03992,-0.52347 1.66432,4.04918 3.81378,10.67348 -0.53364,13.60355 -6.85043,1.33264 -13.17339,4.77158 -18.2894,9.49707 -3.51132,2.91843 -4.09936,9.57877 1.10455,10.94213 7.60741,1.58137 14.10887,-4.48074 20.91016,-6.80177 6.02225,-3.01938 13.50601,-7.0734 13.31555,-14.82499 0.66815,-11.09381 -3.61399,-24.36976 -15.08926,-28.28963 -7.12791,-2.91848 -15.0596,1.26995 -18.32668,7.86567 -1.82588,1.87836 -1.20716,5.83753 -3.53049,6.92036 -7.80455,-1.37589 -15.97315,-2.54202 -23.61561,0.50993 -2.78823,0.38017 -7.60249,4.2673 -6.98644,-0.98597 -0.77519,-4.48301 -1.42564,-8.99418 -1.73136,-13.53578 12.57435,-2.64803 24.94547,-8.20137 37.6105,-8.35696 z m 170.63558,0 c 12.66505,0.15559 25.03624,5.70893 37.61058,8.35695 -0.30575,4.54161 -0.95619,9.05277 -1.73137,13.53579 0.61609,5.25326 -4.19818,1.36613 -6.98644,0.98596 -7.64244,-3.05194 -15.81112,-1.88582 -23.61566,-0.50992 -2.32336,-1.08283 -1.70466,-5.04201 -3.53048,-6.92037 -3.26714,-6.59571 -11.19876,-10.78415 -18.32666,-7.86566 -11.4752,3.91987 -15.75743,17.19581 -15.08929,28.28963 -0.19048,7.75159 7.29332,11.80561 13.31559,14.82498 6.80134,2.32104 13.30275,8.38314 20.91015,6.80177 5.20398,-1.36336 4.61573,-8.0237 1.1046,-10.94213 -5.11612,-4.72549 -11.43903,-8.16442 -18.28946,-9.49706 -4.34738,-2.93007 -2.19793,-9.55438 -0.53362,-13.60356 0.51843,-3.83599 4.22195,-2.01197 5.03988,0.52348 1.31208,4.71885 2.94666,10.27453 8.2248,11.97553 8.16988,3.87677 16.94624,-2.55599 25.15222,1.25023 3.70681,0.0565 6.57217,3.33407 5.81582,7.05081 -3.63013,15.18484 -11.52054,29.53748 -21.86738,41.25958 -1.48503,-4.84433 -4.07491,-10.19223 -8.50087,-13.30708 -6.82607,-4.61891 -15.7091,-1.72609 -23.10747,-4.87898 -6.20398,-3.16369 -9.65118,-10.3259 -16.36996,-12.97165 -5.52613,-2.25772 -14.07775,-4.41802 -17.90825,1.79743 -2.93155,5.92577 4.0954,10.58915 9.26158,11.2928 5.04464,-0.048 8.00517,4.09236 10.67451,7.75725 5.25092,7.05818 14.69905,7.44799 22.70422,7.62172 5.95731,-0.39495 7.67505,6.3022 8.32983,10.94889 1.18622,11.46144 -9.72188,19.27987 -18.13861,24.6321 -12.44849,7.93598 -26.89565,15.70722 -42.23031,12.32958 -6.81698,0.0675 -9.22699,-7.56732 -8.34852,-13.19866 0.26179,-3.40427 -1.79112,-8.69411 1.59753,-10.74561 7.96124,2.97824 14.83327,8.99885 23.34456,10.75747 8.75163,1.97151 15.55298,-6.06481 18.46727,-13.33757 2.13409,-4.21771 1.08595,-10.85293 -4.44191,-11.46053 -6.01455,-1.06441 -10.63774,3.92463 -13.58317,8.40777 -4.73925,-2.82154 -10.15826,-6.06966 -15.83471,-7.50482 -3.19688,-1.90049 -9.71353,-0.25483 -10.0544,-5.18392 0.38911,-21.9266 0.41512,-43.88786 0.62511,-65.82898 0.84604,-2.22681 -1.45007,-10.57429 1.74492,-8.47893 6.55228,4.9109 15.75634,4.6856 22.33832,-0.0627 7.18984,-3.80711 11.35498,-13.18078 20.43578,-12.90728 10.57339,2.58245 21.27001,-0.73485 31.79127,-1.19434 z"
     style="fill:#000000" />
  <g
     transform="matrix(0.86737453,0,0,0.86737453,31.964954,33.44982)"
     id="g4290">
    <circle
       style="opacity:1;fill:#ffffff;fill-opacity:1;fill-rule:nonzero;stroke:none;stroke-width:2.27699995;stroke-linecap:round;stroke-linejoin:miter;stroke-miterlimit:4;stroke-dasharray:none;stroke-dashoffset:0;stroke-opacity:1"
       id="path4270-3"
       cx="258.48279"
       cy="57.718754"
       r="31.728815" />
    <path
       style="opacity:1;fill:#000000;fill-opacity:1;fill-rule:nonzero;stroke:none;stroke-width:11.35822964;stroke-linecap:round;stroke-linejoin:miter;stroke-miterlimit:4;stroke-dasharray:none;stroke-dashoffset:0;stroke-opacity:1"
       d="m 239.16602,-38.564453 0,96.283203 0.0625,0 a 19.254238,19.254238 0 0 0 19.2539,19.253906 19.254238,19.254238 0 0 0 19.25391,-19.253906 l 0.0859,0 0,-96.283203 -38.65625,0 z"
       id="rect4268" />
  </g>
  <g
     transform="matrix(0,0.86737453,-0.86737453,0,478.55018,31.964951)"
     id="g4294">
    <circle
       r="31.728815"
       cy="57.718754"
       cx="258.48279"
       id="circle4296"
       style="opacity:1;fill:#ffffff;fill-opacity:1;fill-rule:nonzero;stroke:none;stroke-width:2.27699995;stroke-linecap:round;stroke-linejoin:miter;stroke-miterlimit:4;stroke-dasharray:none;stroke-dashoffset:0;stroke-opacity:1" />
    <path
       id="path4298"
       d="m 239.16602,-38.564453 0,96.283203 0.0625,0 a 19.254238,19.254238 0 0 0 19.2539,19.253906 19.254238,19.254238 0 0 0 19.25391,-19.253906 l 0.0859,0 0,-96.283203 -38.65625,0 z"
       style="opacity:1;fill:#000000;fill-opacity:1;fill-rule:nonzero;stroke:none;stroke-width:11.35822964;stroke-linecap:round;stroke-linejoin:miter;stroke-miterlimit:4;stroke-dasharray:none;stroke-dashoffset:0;stroke-opacity:1" />
  </g>
  <g
     id="g4300"
     transform="matrix(-0.86737453,0,0,-0.86737453,480.03504,478.55018)">
    <circle
       style="opacity:1;fill:#ffffff;fill-opacity:1;fill-rule:nonzero;stroke:none;stroke-width:2.27699995;stroke-linecap:round;stroke-linejoin:miter;stroke-miterlimit:4;stroke-dasharray:none;stroke-dashoffset:0;stroke-opacity:1"
       id="circle4302"
       cx="258.48279"
       cy="57.718754"
       r="31.728815" />
    <path
       style="opacity:1;fill:#000000;fill-opacity:1;fill-rule:nonzero;stroke:none;stroke-width:11.35822964;stroke-linecap:round;stroke-linejoin:miter;stroke-miterlimit:4;stroke-dasharray:none;stroke-dashoffset:0;stroke-opacity:1"
       d="m 239.16602,-38.564453 0,96.283203 0.0625,0 a 19.254238,19.254238 0 0 0 19.2539,19.253906 19.254238,19.254238 0 0 0 19.25391,-19.253906 l 0.0859,0 0,-96.283203 -38.65625,0 z"
       id="path4304" />
  </g>
  <g
     transform="matrix(0,-0.86737453,0.86737453,0,33.449824,480.03505)"
     id="g4306">
    <circle
       r="31.728815"
       cy="57.718754"
       cx="258.48279"
       id="circle4308"
       style="opacity:1;fill:#ffffff;fill-opacity:1;fill-rule:nonzero;stroke:none;stroke-width:2.27699995;stroke-linecap:round;stroke-linejoin:miter;stroke-miterlimit:4;stroke-dasharray:none;stroke-dashoffset:0;stroke-opacity:1" />
    <path
       id="path4310"
       d="m 239.16602,-38.564453 0,96.283203 0.0625,0 a 19.254238,19.254238 0 0 0 19.2539,19.253906 19.254238,19.254238 0 0 0 19.25391,-19.253906 l 0.0859,0 0,-96.283203 -38.65625,0 z"
       style="opacity:1;fill:#000000;fill-opacity:1;fill-rule:nonzero;stroke:none;stroke-width:11.35822964;stroke-linecap:round;stroke-linejoin:miter;stroke-miterlimit:4;stroke-dasharray:none;stroke-dashoffset:0;stroke-opacity:1" />
  </g>
  <g
     id="g4312"
     transform="matrix(-0.61332641,-0.61332641,0.61332641,-0.61332641,257.04996,571.78344)">
    <circle
       style="opacity:1;fill:#ffffff;fill-opacity:1;fill-rule:nonzero;stroke:none;stroke-width:2.27699995;stroke-linecap:round;stroke-linejoin:miter;stroke-miterlimit:4;stroke-dasharray:none;stroke-dashoffset:0;stroke-opacity:1"
       id="circle4314"
       cx="258.48279"
       cy="57.718754"
       r="31.728815" />
    <path
       style="opacity:1;fill:#000000;fill-opacity:1;fill-rule:nonzero;stroke:none;stroke-width:11.35822964;stroke-linecap:round;stroke-linejoin:miter;stroke-miterlimit:4;stroke-dasharray:none;stroke-dashoffset:0;stroke-opacity:1"
       d="m 239.16602,-38.564453 0,96.283203 0.0625,0 a 19.254238,19.254238 0 0 0 19.2539,19.253906 19.254238,19.254238 0 0 0 19.25391,-19.253906 l 0.0859,0 0,-96.283203 -38.65625,0 z"
       id="path4316" />
  </g>
  <g
     transform="matrix(0.61332641,-0.61332641,0.61332641,0.61332641,-59.783444,257.04998)"
     id="g4318">
    <circle
       r="31.728815"
       cy="57.718754"
       cx="258.48279"
       id="circle4320"
       style="opacity:1;fill:#ffffff;fill-opacity:1;fill-rule:nonzero;stroke:none;stroke-width:2.27699995;stroke-linecap:round;stroke-linejoin:miter;stroke-miterlimit:4;stroke-dasharray:none;stroke-dashoffset:0;stroke-opacity:1" />
    <path
       id="path4322"
       d="m 239.16602,-38.564453 0,96.283203 0.0625,0 a 19.254238,19.254238 0 0 0 19.2539,19.253906 19.254238,19.254238 0 0 0 19.25391,-19.253906 l 0.0859,0 0,-96.283203 -38.65625,0 z"
       style="opacity:1;fill:#000000;fill-opacity:1;fill-rule:nonzero;stroke:none;stroke-width:11.35822964;stroke-linecap:round;stroke-linejoin:miter;stroke-miterlimit:4;stroke-dasharray:none;stroke-dashoffset:0;stroke-opacity:1" />
  </g>
  <g
     id="g4324"
     transform="matrix(0.61332641,0.61332641,-0.61332641,0.61332641,254.95003,-59.783436)">
    <circle
       style="opacity:1;fill:#ffffff;fill-opacity:1;fill-rule:nonzero;stroke:none;stroke-width:2.27699995;stroke-linecap:round;stroke-linejoin:miter;stroke-miterlimit:4;stroke-dasharray:none;stroke-dashoffset:0;stroke-opacity:1"
       id="circle4326"
       cx="258.48279"
       cy="57.718754"
       r="31.728815" />
    <path
       style="opacity:1;fill:#000000;fill-opacity:1;fill-rule:nonzero;stroke:none;stroke-width:11.35822964;stroke-linecap:round;stroke-linejoin:miter;stroke-miterlimit:4;stroke-dasharray:none;stroke-dashoffset:0;stroke-opacity:1"
       d="m 239.16602,-38.564453 0,96.283203 0.0625,0 a 19.254238,19.254238 0 0 0 19.2539,19.253906 19.254238,19.254238 0 0 0 19.25391,-19.253906 l 0.0859,0 0,-96.283203 -38.65625,0 z"
       id="path4328" />
  </g>
  <g
     transform="matrix(-0.61332641,0.61332641,-0.61332641,-0.61332641,571.78343,254.95004)"
     id="g4330">
    <circle
       r="31.728815"
       cy="57.718754"
       cx="258.48279"
       id="circle4332"
       style="opacity:1;fill:#ffffff;fill-opacity:1;fill-rule:nonzero;stroke:none;stroke-width:2.27699995;stroke-linecap:round;stroke-linejoin:miter;stroke-miterlimit:4;stroke-dasharray:none;stroke-dashoffset:0;stroke-opacity:1" />
    <path
       id="path4334"
       d="m 239.16602,-38.564453 0,96.283203 0.0625,0 a 19.254238,19.254238 0 0 0 19.2539,19.253906 19.254238,19.254238 0 0 0 19.25391,-19.253906 l 0.0859,0 0,-96.283203 -38.65625,0 z"
       style="opacity:1;fill:#000000;fill-opacity:1;fill-rule:nonzero;stroke:none;stroke-width:11.35822964;stroke-linecap:round;stroke-linejoin:miter;stroke-miterlimit:4;stroke-dasharray:none;stroke-dashoffset:0;stroke-opacity:1" />
  </g>
</svg>
